<mxfile host="www.draw.io" modified="2019-11-17T09:55:42.561Z" agent="Mozilla/5.0 (Windows NT 10.0; WOW64) AppleWebKit/537.36 (KHTML, like Gecko) Chrome/77.0.3865.120 Safari/537.36 OPR/64.0.3417.92" etag="3scy1qt38jHknNgVmhsj" version="12.2.6" type="github" pages="1">
  <diagram id="Ty4JZwqavsLxe9qFrRq8" name="Page-1">
    <mxGraphModel dx="814" dy="3769" grid="1" gridSize="10" guides="1" tooltips="1" connect="1" arrows="1" fold="1" page="1" pageScale="1" pageWidth="850" pageHeight="1100" math="0" shadow="0">
      <root>
        <mxCell id="0"/>
        <mxCell id="1" parent="0"/>
        <mxCell id="qfAPLty26HnKO8QpNCnJ-2" value="Header" style="swimlane;html=1;startSize=20;horizontal=1;containerType=tree;" vertex="1" parent="1">
          <mxGeometry x="40" y="-3230" width="770" height="810" as="geometry"/>
        </mxCell>
      </root>
    </mxGraphModel>
  </diagram>
</mxfile>
